<svg id="Layer_1" data-name="Layer 1" xmlns="http://www.w3.org/2000/svg" viewBox="0 0 219.26 130.64">
  <defs>
    <style>
      .cls-1 {
        fill: #457464;
      }
    </style>
  </defs>
  <title>Logo</title>
  <polygon class="cls-1" points="52.06 51.2 35.48 0 34 0 33.13 0 0 0 16.48 50.87 33.78 104.27 42.32 130.64 59.43 130.64 67.69 106.65 68.89 103.15 77.77 77.37 60.94 25.41 52.06 51.2"/>
  <polygon class="cls-1" points="145.12 78.7 172.22 0 140.11 0 136.53 0 127.81 25.3 129.55 30.66 145.12 78.7"/>
  <polygon class="cls-1" points="121.33 54.53 119.59 49.17 104.03 1.13 103.66 0 100.05 0 69.69 0 68.18 0 68.92 2.26 85.75 54.21 101.31 102.25 103.05 107.61 110.51 130.64 127.23 130.64 142.37 130.64 145.99 130.64 136.89 102.58 121.33 54.53"/>
  <path class="cls-1" d="M234.84,331.75a13.07,13.07,0,0,1,26.13,0" transform="translate(-41.71 -214.18)"/>
  <path class="cls-1" d="M261,331.75a13.07,13.07,0,1,1-26.13,0" transform="translate(-41.71 -214.18)"/>
</svg>
